#N canvas 953 0 1920 997 12;
#X obj 566 97 pedrodrums;
#N canvas -367 155 1920 997 clock 0;
#X obj 104 168 tgl 30 0 empty empty empty 0 -10 0 12 #fcfcfc #000000 #000000 0 1;
#X obj 1273 162 metro;
#X obj 1521 484 loadbang;
#X msg 1521 508 375;
#X floatatom 1521 532 5 0 0 0 - - - 0;
#X obj 1273 186 bng 19 250 50 0 empty empty empty 0 -10 0 12 #fcfcfc #000000 #000000;
#X obj 1572 327 sel 0;
#X obj 1572 351 bng 19 250 50 0 empty empty empty 0 -10 0 12 #fcfcfc #000000 #000000;
#X msg 1573 382 -1;
#X obj 1537 254 loadbang;
#X obj 1272 245 int 1;
#X obj 1361 297 + 1;
#X floatatom 1274 331 5 0 0 0 - - - 0;
#X obj 1274 354 % 8;
#X obj 1274 390 + 1;
#X obj 826 518 sel 1 2 3 4 5 6 7 8, f 76;
#X obj 104 219 bng 19 250 50 0 empty empty empty 0 -10 0 12 #fcfcfc #000000 #000000;
#X obj 134 219 bng 19 250 50 0 empty empty empty 0 -10 0 12 #fcfcfc #000000 #000000;
#X obj 163 219 bng 19 250 50 0 empty empty empty 0 -10 0 12 #fcfcfc #000000 #000000;
#X obj 192 219 bng 19 250 50 0 empty empty empty 0 -10 0 12 #fcfcfc #000000 #000000;
#X obj 221 219 bng 19 250 50 0 empty empty empty 0 -10 0 12 #fcfcfc #000000 #000000;
#X obj 250 219 bng 19 250 50 0 empty empty empty 0 -10 0 12 #fcfcfc #000000 #000000;
#X obj 280 219 bng 19 250 50 0 empty empty empty 0 -10 0 12 #fcfcfc #000000 #000000;
#X obj 308 219 bng 19 250 50 0 empty empty empty 0 -10 0 12 #fcfcfc #000000 #000000;
#X obj 142 542 s One;
#X obj 208 541 s Two;
#X obj 268 541 s Three;
#X obj 340 544 s Four;
#X obj 401 546 s Five;
#X obj 481 544 s Six;
#X obj 540 544 s Seven;
#X obj 151 169 hsl 162 19 50 260 0 0 empty empty empty -2 -10 0 12 #fcfcfc #000000 #000000 0 1;
#X floatatom 148 193 5 0 0 0 - - - 0;
#X floatatom 1408 279 5 0 0 0 - - - 0;
#X obj 1408 256 expr 60000 / $f1;
#X obj 321 112 vradio 19 1 0 4 beat_len empty empty 0 -10 0 12 #fcfcfc #000000 #000000 0;
#X obj 1325 352 r beat_len;
#X floatatom 1325 376 5 0 0 0 - - - 0;
#X obj 1325 399 sel 0 1 2 3;
#X floatatom 1420 188 5 0 0 0 - - - 0;
#X obj 1485 221 t b f;
#X obj 1420 164 * 1;
#X msg 1563 185 1;
#X msg 1292 448 2;
#X msg 1351 456 4;
#X msg 1418 462 0.5;
#X text 344 111 quarter;
#X text 345 132 eighth;
#X text 345 152 sixteenth;
#X text 345 169 half;
#X obj 623 554 s Eight;
#X connect 0 0 1 0;
#X connect 0 0 6 0;
#X connect 1 0 5 0;
#X connect 2 0 3 0;
#X connect 3 0 4 0;
#X connect 4 0 1 1;
#X connect 5 0 10 0;
#X connect 6 0 7 0;
#X connect 7 0 8 0;
#X connect 8 0 10 0;
#X connect 9 0 6 0;
#X connect 10 0 11 0;
#X connect 10 0 12 0;
#X connect 11 0 10 1;
#X connect 12 0 13 0;
#X connect 13 0 14 0;
#X connect 14 0 15 0;
#X connect 15 0 16 0;
#X connect 15 1 17 0;
#X connect 15 2 18 0;
#X connect 15 3 19 0;
#X connect 15 4 20 0;
#X connect 15 5 21 0;
#X connect 15 6 22 0;
#X connect 15 7 23 0;
#X connect 16 0 24 0;
#X connect 17 0 25 0;
#X connect 18 0 26 0;
#X connect 19 0 27 0;
#X connect 20 0 28 0;
#X connect 21 0 29 0;
#X connect 22 0 30 0;
#X connect 23 0 50 0;
#X connect 31 0 32 0;
#X connect 32 0 41 0;
#X connect 33 0 1 1;
#X connect 34 0 33 0;
#X connect 36 0 37 0;
#X connect 37 0 38 0;
#X connect 38 0 42 0;
#X connect 38 1 43 0;
#X connect 38 2 44 0;
#X connect 38 3 45 0;
#X connect 39 0 34 0;
#X connect 40 0 32 0;
#X connect 40 1 41 1;
#X connect 41 0 39 0;
#X connect 42 0 40 0;
#X connect 43 0 40 0;
#X connect 44 0 40 0;
#X connect 45 0 40 0;
#X coords 0 -1 1 1 320 150 2 100 100;
#X restore 47 97 pd clock;
#N canvas -195 95 1920 997 kick_seq 0;
#X obj 366 292 r One;
#X obj 366 316 bng 19 250 50 0 empty empty empty 0 -10 0 12 #fcfcfc #000000 #000000;
#X obj 366 340 spigot, f 16;
#X obj 103 136 tgl 19 0 empty empty empty 0 -10 0 12 #fcfcfc #000000 #000000 0 1;
#X obj 470 398 bng 19 250 50 0 empty empty empty 0 -10 0 12 #fcfcfc #000000 #000000;
#X obj 475 442 spigot, f 16;
#X obj 133 136 tgl 19 0 empty empty empty 0 -10 0 12 #fcfcfc #000000 #000000 0 1;
#X obj 662 397 bng 19 250 50 0 empty empty empty 0 -10 0 12 #fcfcfc #000000 #000000;
#X obj 667 441 spigot, f 16;
#X obj 163 136 tgl 19 0 empty empty empty 0 -10 0 12 #fcfcfc #000000 #000000 0 1;
#X obj 834 406 bng 19 250 50 0 empty empty empty 0 -10 0 12 #fcfcfc #000000 #000000;
#X obj 839 450 spigot, f 16;
#X obj 193 136 tgl 19 0 empty empty empty 0 -10 0 12 #fcfcfc #000000 #000000 0 1;
#X obj 921 543 bng 19 250 50 0 empty empty empty 0 -10 0 12 #fcfcfc #000000 #000000;
#X obj 921 567 spigot, f 16;
#X obj 223 136 tgl 19 0 empty empty empty 0 -10 0 12 #fcfcfc #000000 #000000 0 1;
#X obj 1025 625 bng 19 250 50 0 empty empty empty 0 -10 0 12 #fcfcfc #000000 #000000;
#X obj 1030 669 spigot, f 16;
#X obj 253 136 tgl 19 0 empty empty empty 0 -10 0 12 #fcfcfc #000000 #000000 0 1;
#X obj 1217 624 bng 19 250 50 0 empty empty empty 0 -10 0 12 #fcfcfc #000000 #000000;
#X obj 1222 668 spigot, f 16;
#X obj 283 136 tgl 19 0 empty empty empty 0 -10 0 12 #fcfcfc #000000 #000000 0 1;
#X obj 1389 633 bng 19 250 50 0 empty empty empty 0 -10 0 12 #fcfcfc #000000 #000000;
#X obj 1394 677 spigot, f 16;
#X obj 313 136 tgl 19 0 empty empty empty 0 -10 0 12 #fcfcfc #000000 #000000 0 1;
#X obj 969 851 s kick_pattern;
#X obj 470 373 r Two;
#X obj 662 373 r Three;
#X obj 834 382 r Four;
#X obj 921 519 r Five;
#X obj 1025 601 r Six;
#X obj 1217 600 r Seven;
#X text 103 107 kick pattern;
#X obj 1388 609 r Eight;
#X connect 0 0 1 0;
#X connect 1 0 2 0;
#X connect 2 0 25 0;
#X connect 3 0 2 1;
#X connect 4 0 5 0;
#X connect 5 0 25 0;
#X connect 6 0 5 1;
#X connect 7 0 8 0;
#X connect 8 0 25 0;
#X connect 9 0 8 1;
#X connect 10 0 11 0;
#X connect 11 0 25 0;
#X connect 12 0 11 1;
#X connect 13 0 14 0;
#X connect 14 0 25 0;
#X connect 15 0 14 1;
#X connect 16 0 17 0;
#X connect 17 0 25 0;
#X connect 18 0 17 1;
#X connect 19 0 20 0;
#X connect 20 0 25 0;
#X connect 21 0 20 1;
#X connect 22 0 23 0;
#X connect 23 0 25 0;
#X connect 24 0 23 1;
#X connect 26 0 4 0;
#X connect 27 0 7 0;
#X connect 28 0 10 0;
#X connect 29 0 13 0;
#X connect 30 0 16 0;
#X connect 31 0 19 0;
#X connect 33 0 22 0;
#X coords 0 -1 1 1 240 60 2 100 100;
#X restore 47 256 pd kick_seq;
#X obj 566 56 r kick_pattern;
#N canvas -255 167 1920 997 kick_seq 0;
#X obj 366 292 r One;
#X obj 366 316 bng 19 250 50 0 empty empty empty 0 -10 0 12 #fcfcfc #000000 #000000;
#X obj 366 340 spigot, f 16;
#X obj 103 136 tgl 19 0 empty empty empty 0 -10 0 12 #fcfcfc #000000 #000000 0 1;
#X obj 470 398 bng 19 250 50 0 empty empty empty 0 -10 0 12 #fcfcfc #000000 #000000;
#X obj 475 442 spigot, f 16;
#X obj 133 136 tgl 19 0 empty empty empty 0 -10 0 12 #fcfcfc #000000 #000000 0 1;
#X obj 662 397 bng 19 250 50 0 empty empty empty 0 -10 0 12 #fcfcfc #000000 #000000;
#X obj 667 441 spigot, f 16;
#X obj 163 136 tgl 19 0 empty empty empty 0 -10 0 12 #fcfcfc #000000 #000000 0 1;
#X obj 834 406 bng 19 250 50 0 empty empty empty 0 -10 0 12 #fcfcfc #000000 #000000;
#X obj 839 450 spigot, f 16;
#X obj 193 136 tgl 19 0 empty empty empty 0 -10 0 12 #fcfcfc #000000 #000000 0 1;
#X obj 921 543 bng 19 250 50 0 empty empty empty 0 -10 0 12 #fcfcfc #000000 #000000;
#X obj 921 567 spigot, f 16;
#X obj 223 136 tgl 19 0 empty empty empty 0 -10 0 12 #fcfcfc #000000 #000000 0 1;
#X obj 1025 625 bng 19 250 50 0 empty empty empty 0 -10 0 12 #fcfcfc #000000 #000000;
#X obj 1030 669 spigot, f 16;
#X obj 253 136 tgl 19 0 empty empty empty 0 -10 0 12 #fcfcfc #000000 #000000 0 1;
#X obj 1217 624 bng 19 250 50 0 empty empty empty 0 -10 0 12 #fcfcfc #000000 #000000;
#X obj 1222 668 spigot, f 16;
#X obj 283 136 tgl 19 0 empty empty empty 0 -10 0 12 #fcfcfc #000000 #000000 0 1;
#X obj 1389 633 bng 19 250 50 0 empty empty empty 0 -10 0 12 #fcfcfc #000000 #000000;
#X obj 1394 677 spigot, f 16;
#X obj 313 136 tgl 19 0 empty empty empty 0 -10 0 12 #fcfcfc #000000 #000000 0 1;
#X obj 470 373 r Two;
#X obj 662 373 r Three;
#X obj 834 382 r Four;
#X obj 921 519 r Five;
#X obj 1025 601 r Six;
#X obj 1217 600 r Seven;
#X obj 1388 609 r Eight;
#X text 103 107 hi-hat pattern;
#X obj 969 851 s hat_pattern;
#X connect 0 0 1 0;
#X connect 1 0 2 0;
#X connect 2 0 33 0;
#X connect 3 0 2 1;
#X connect 4 0 5 0;
#X connect 5 0 33 0;
#X connect 6 0 5 1;
#X connect 7 0 8 0;
#X connect 8 0 33 0;
#X connect 9 0 8 1;
#X connect 10 0 11 0;
#X connect 11 0 33 0;
#X connect 12 0 11 1;
#X connect 13 0 14 0;
#X connect 14 0 33 0;
#X connect 15 0 14 1;
#X connect 16 0 17 0;
#X connect 17 0 33 0;
#X connect 18 0 17 1;
#X connect 19 0 20 0;
#X connect 20 0 33 0;
#X connect 21 0 20 1;
#X connect 22 0 23 0;
#X connect 23 0 33 0;
#X connect 24 0 23 1;
#X connect 25 0 4 0;
#X connect 26 0 7 0;
#X connect 27 0 10 0;
#X connect 28 0 13 0;
#X connect 29 0 16 0;
#X connect 30 0 19 0;
#X connect 31 0 22 0;
#X coords 0 -1 1 1 240 60 2 100 100;
#X restore 47 329 pd kick_seq;
#X obj 930 55 r hat_pattern;
#N canvas -97 54 1920 997 kick_seq 0;
#X obj 366 292 r One;
#X obj 366 316 bng 19 250 50 0 empty empty empty 0 -10 0 12 #fcfcfc #000000 #000000;
#X obj 366 340 spigot, f 16;
#X obj 103 136 tgl 19 0 empty empty empty 0 -10 0 12 #fcfcfc #000000 #000000 0 1;
#X obj 470 398 bng 19 250 50 0 empty empty empty 0 -10 0 12 #fcfcfc #000000 #000000;
#X obj 475 442 spigot, f 16;
#X obj 133 136 tgl 19 0 empty empty empty 0 -10 0 12 #fcfcfc #000000 #000000 0 1;
#X obj 662 397 bng 19 250 50 0 empty empty empty 0 -10 0 12 #fcfcfc #000000 #000000;
#X obj 667 441 spigot, f 16;
#X obj 163 136 tgl 19 0 empty empty empty 0 -10 0 12 #fcfcfc #000000 #000000 0 1;
#X obj 834 406 bng 19 250 50 0 empty empty empty 0 -10 0 12 #fcfcfc #000000 #000000;
#X obj 839 450 spigot, f 16;
#X obj 193 136 tgl 19 0 empty empty empty 0 -10 0 12 #fcfcfc #000000 #000000 0 1;
#X obj 921 543 bng 19 250 50 0 empty empty empty 0 -10 0 12 #fcfcfc #000000 #000000;
#X obj 921 567 spigot, f 16;
#X obj 223 136 tgl 19 0 empty empty empty 0 -10 0 12 #fcfcfc #000000 #000000 0 1;
#X obj 1025 625 bng 19 250 50 0 empty empty empty 0 -10 0 12 #fcfcfc #000000 #000000;
#X obj 1030 669 spigot, f 16;
#X obj 253 136 tgl 19 0 empty empty empty 0 -10 0 12 #fcfcfc #000000 #000000 0 1;
#X obj 1217 624 bng 19 250 50 0 empty empty empty 0 -10 0 12 #fcfcfc #000000 #000000;
#X obj 1222 668 spigot, f 16;
#X obj 283 136 tgl 19 0 empty empty empty 0 -10 0 12 #fcfcfc #000000 #000000 0 1;
#X obj 1389 633 bng 19 250 50 0 empty empty empty 0 -10 0 12 #fcfcfc #000000 #000000;
#X obj 1394 677 spigot, f 16;
#X obj 313 136 tgl 19 0 empty empty empty 0 -10 0 12 #fcfcfc #000000 #000000 0 1;
#X obj 470 373 r Two;
#X obj 662 373 r Three;
#X obj 834 382 r Four;
#X obj 921 519 r Five;
#X obj 1025 601 r Six;
#X obj 1217 600 r Seven;
#X obj 1388 609 r Eight;
#X text 103 107 snare pattern;
#X obj 969 851 s snare_pattern;
#X connect 0 0 1 0;
#X connect 1 0 2 0;
#X connect 2 0 33 0;
#X connect 3 0 2 1;
#X connect 4 0 5 0;
#X connect 5 0 33 0;
#X connect 6 0 5 1;
#X connect 7 0 8 0;
#X connect 8 0 33 0;
#X connect 9 0 8 1;
#X connect 10 0 11 0;
#X connect 11 0 33 0;
#X connect 12 0 11 1;
#X connect 13 0 14 0;
#X connect 14 0 33 0;
#X connect 15 0 14 1;
#X connect 16 0 17 0;
#X connect 17 0 33 0;
#X connect 18 0 17 1;
#X connect 19 0 20 0;
#X connect 20 0 33 0;
#X connect 21 0 20 1;
#X connect 22 0 23 0;
#X connect 23 0 33 0;
#X connect 24 0 23 1;
#X connect 25 0 4 0;
#X connect 26 0 7 0;
#X connect 27 0 10 0;
#X connect 28 0 13 0;
#X connect 29 0 16 0;
#X connect 30 0 19 0;
#X connect 31 0 22 0;
#X coords 0 -1 1 1 240 60 2 100 100;
#X restore 294 257 pd kick_seq;
#N canvas 563 -10 1920 997 kick_seq 0;
#X obj 366 292 r One;
#X obj 366 316 bng 19 250 50 0 empty empty empty 0 -10 0 12 #fcfcfc #000000 #000000;
#X obj 366 340 spigot, f 16;
#X obj 103 136 tgl 19 0 empty empty empty 0 -10 0 12 #fcfcfc #000000 #000000 0 1;
#X obj 470 398 bng 19 250 50 0 empty empty empty 0 -10 0 12 #fcfcfc #000000 #000000;
#X obj 475 442 spigot, f 16;
#X obj 133 136 tgl 19 0 empty empty empty 0 -10 0 12 #fcfcfc #000000 #000000 0 1;
#X obj 662 397 bng 19 250 50 0 empty empty empty 0 -10 0 12 #fcfcfc #000000 #000000;
#X obj 667 441 spigot, f 16;
#X obj 163 136 tgl 19 0 empty empty empty 0 -10 0 12 #fcfcfc #000000 #000000 0 1;
#X obj 834 406 bng 19 250 50 0 empty empty empty 0 -10 0 12 #fcfcfc #000000 #000000;
#X obj 839 450 spigot, f 16;
#X obj 193 136 tgl 19 0 empty empty empty 0 -10 0 12 #fcfcfc #000000 #000000 0 1;
#X obj 921 543 bng 19 250 50 0 empty empty empty 0 -10 0 12 #fcfcfc #000000 #000000;
#X obj 921 567 spigot, f 16;
#X obj 223 136 tgl 19 0 empty empty empty 0 -10 0 12 #fcfcfc #000000 #000000 0 1;
#X obj 1025 625 bng 19 250 50 0 empty empty empty 0 -10 0 12 #fcfcfc #000000 #000000;
#X obj 1030 669 spigot, f 16;
#X obj 253 136 tgl 19 0 empty empty empty 0 -10 0 12 #fcfcfc #000000 #000000 0 1;
#X obj 1217 624 bng 19 250 50 0 empty empty empty 0 -10 0 12 #fcfcfc #000000 #000000;
#X obj 1222 668 spigot, f 16;
#X obj 283 136 tgl 19 0 empty empty empty 0 -10 0 12 #fcfcfc #000000 #000000 0 1;
#X obj 1389 633 bng 19 250 50 0 empty empty empty 0 -10 0 12 #fcfcfc #000000 #000000;
#X obj 1394 677 spigot, f 16;
#X obj 313 136 tgl 19 0 empty empty empty 0 -10 0 12 #fcfcfc #000000 #000000 0 1;
#X obj 470 373 r Two;
#X obj 662 373 r Three;
#X obj 834 382 r Four;
#X obj 921 519 r Five;
#X obj 1025 601 r Six;
#X obj 1217 600 r Seven;
#X obj 1388 609 r Eight;
#X text 103 107 clap pattern;
#X obj 969 851 s clap_pattern;
#X connect 0 0 1 0;
#X connect 1 0 2 0;
#X connect 2 0 33 0;
#X connect 3 0 2 1;
#X connect 4 0 5 0;
#X connect 5 0 33 0;
#X connect 6 0 5 1;
#X connect 7 0 8 0;
#X connect 8 0 33 0;
#X connect 9 0 8 1;
#X connect 10 0 11 0;
#X connect 11 0 33 0;
#X connect 12 0 11 1;
#X connect 13 0 14 0;
#X connect 14 0 33 0;
#X connect 15 0 14 1;
#X connect 16 0 17 0;
#X connect 17 0 33 0;
#X connect 18 0 17 1;
#X connect 19 0 20 0;
#X connect 20 0 33 0;
#X connect 21 0 20 1;
#X connect 22 0 23 0;
#X connect 23 0 33 0;
#X connect 24 0 23 1;
#X connect 25 0 4 0;
#X connect 26 0 7 0;
#X connect 27 0 10 0;
#X connect 28 0 13 0;
#X connect 29 0 16 0;
#X connect 30 0 19 0;
#X connect 31 0 22 0;
#X coords 0 -1 1 1 240 60 2 100 100;
#X restore 298 330 pd kick_seq;
#X obj 1294 60 r snare_pattern;
#X obj 1659 61 r clap_pattern;
#X obj 567 800 *~;
#X obj 675 775 hsl 162 19 0 0.99 0 0 empty empty empty -2 -10 0 12 #fcfcfc #000000 #000000 0 1;
#X floatatom 672 799 5 0 0 0 - - - 0;
#X obj 567 824 dac~;
#X connect 0 0 10 0;
#X connect 3 0 0 0;
#X connect 5 0 0 1;
#X connect 8 0 0 2;
#X connect 9 0 0 3;
#X connect 10 0 13 0;
#X connect 10 0 13 1;
#X connect 11 0 12 0;
#X connect 12 0 10 1;
