#N canvas 300 109 1491 988 12;
#N canvas 24 135 1433 865 pedrokick 0;
#N canvas 811 191 450 300 Kick 0;
#X obj 37 37 inlet;
#X obj 186 323 phasor~;
#X obj 131 349 expr~ $v1 > 0.5;
#X obj 166 505 *~;
#X floatatom 345 156 5 0 0 0 - - - 0;
#X obj 298 196 f 250, f 7;
#N canvas 306 376 1331 531 vol_env 0;
#X obj 426 234 vline~;
#X obj 426 258 *~;
#X msg 430 182 0.5 \, 1 5 \, 0.5 60 5 \, 0 \$1 65;
#X obj 315 127 inlet;
#X obj 426 282 outlet~;
#X connect 0 0 1 0;
#X connect 0 0 1 1;
#X connect 1 0 4 0;
#X connect 2 0 0 0;
#X connect 3 0 2 0;
#X restore 19 317 pd vol_env;
#N canvas 73 204 1331 531 pitch_env 0;
#X obj 426 234 vline~;
#X obj 426 258 *~;
#X obj 428 147 inlet;
#X obj 424 367 outlet~;
#X msg 427 192 1 \, 0.5 5 \, 0 \$1 5;
#X obj 426 306 +~ 29;
#X obj 426 330 mtof~;
#X obj 426 282 *~ 80;
#X connect 0 0 1 0;
#X connect 0 0 1 1;
#X connect 1 0 7 0;
#X connect 2 0 4 0;
#X connect 4 0 0 0;
#X connect 5 0 6 0;
#X connect 6 0 3 0;
#X connect 7 0 5 0;
#X restore 246 243 pd pitch_env;
#X obj 214 281 *~ 1;
#X floatatom 408 260 10 0 0 1 pitch\ scale - - 0;
#X obj 140 389 vcf~ 0.5;
#X obj 358 432 *~ 1.5;
#X floatatom 487 391 5 0 0 1 filter\ scale - - 0;
#X obj 74 364 noise~;
#X obj 462 497 *~ 1.5;
#X floatatom 620 452 5 0 0 1 sine\ scale - - 0;
#X obj 462 521 osc~;
#X obj 349 92 inlet;
#X obj 406 195 inlet;
#X obj 485 331 inlet;
#X obj 617 383 inlet;
#X obj 166 529 outlet~;
#X connect 0 0 5 0;
#X connect 1 0 2 0;
#X connect 2 0 10 0;
#X connect 3 0 21 0;
#X connect 4 0 5 1;
#X connect 5 0 6 0;
#X connect 5 0 7 0;
#X connect 6 0 3 0;
#X connect 7 0 8 0;
#X connect 7 0 11 0;
#X connect 8 0 1 0;
#X connect 8 0 14 0;
#X connect 9 0 8 1;
#X connect 10 1 3 1;
#X connect 11 0 10 1;
#X connect 12 0 11 1;
#X connect 13 0 10 0;
#X connect 14 0 16 0;
#X connect 15 0 14 1;
#X connect 16 0 3 1;
#X connect 17 0 4 0;
#X connect 18 0 9 0;
#X connect 19 0 12 0;
#X connect 20 0 15 0;
#X restore 515 388 pd Kick;
#X f 76;
#X floatatom 646 276 5 0 0 1 decay - - 0;
#X floatatom 778 276 5 0 0 1 pitch\ scale - - 0;
#X floatatom 910 276 5 0 0 1 filter\ scale - - 0;
#X floatatom 1043 276 5 0 0 1 sine\ scale - - 0;
#X obj 646 107 vsl 19 162 10 2000 0 0 empty kick_decay empty 0 -9 0 12 #fcfcfc #000000 #000000 0 1;
#X obj 778 107 vsl 19 162 0.1 3 0 0 empty kick_pitch empty 0 -9 0 12 #fcfcfc #000000 #000000 0 1;
#X obj 910 107 vsl 19 162 0.1 3 0 0 empty kick_filter empty 0 -9 0 12 #fcfcfc #000000 #000000 0 1;
#X obj 1043 107 vsl 19 162 0.1 3 0 0 empty kick_sine empty 0 -9 0 12 #fcfcfc #000000 #000000 0 1;
#X msg 449 661 \; kick_decay 250 \; kick_pitch 1 \; kick_filter 1.5 \; kick_sine 1 \;, f 20;
#X msg 707 658 \; kick_decay 150 \; kick_pitch 0.5 \; kick_filter 1.5 \; kick_sine 1 \;, f 20;
#X msg 891 623 \; kick_decay 150 \; kick_pitch 0.5 \; kick_filter 0.5 \; kick_sine 0.5 \;, f 20;
#X msg 274 649 \; kick_decay 50 \; kick_pitch 2.25 \; kick_filter 1.5 \; kick_sine 0.8 \;, f 20;
#X text 728 765 pillow slap;
#X text 439 782 bright and open;
#X text 247 749 bright and closed;
#X text 970 742 knee slap;
#X obj 510 195 vradio 19 1 0 4 kick_preset empty empty 0 -10 0 12 #fcfcfc #000000 #000000 0;
#X text 530 194 bright \, closed;
#X text 530 214 bright \, open;
#X text 530 234 pillow slap;
#X text 530 251 knee slap;
#X obj 195 550 r kick_preset;
#X floatatom 195 581 5 0 0 0 - - - 0;
#X obj 195 604 sel 0 1 2 3;
#X obj 512 302 hsl 162 19 0 0.99 0 0 empty empty volume -2 -10 0 12 #fcfcfc #000000 #000000 0 1;
#X obj 335 131 inlet;
#X obj 513 493 outlet~;
#X text 514 116 KICK!;
#X obj 515 434 *~;
#X connect 0 0 29 0;
#X connect 1 0 0 1;
#X connect 2 0 0 2;
#X connect 3 0 0 3;
#X connect 4 0 0 4;
#X connect 5 0 1 0;
#X connect 6 0 2 0;
#X connect 7 0 3 0;
#X connect 8 0 4 0;
#X connect 22 0 23 0;
#X connect 23 0 24 0;
#X connect 24 0 12 0;
#X connect 24 1 9 0;
#X connect 24 2 10 0;
#X connect 24 3 11 0;
#X connect 25 0 29 1;
#X connect 26 0 0 0;
#X connect 29 0 27 0;
#X coords 1000 -1 1500 1 700 280 2 500 100;
#X restore 9 42 pd pedrokick;
#N canvas 1891 175 1920 997 pedro_snare 0;
#X obj 313 473 noise~;
#X obj 325 530 *~;
#X obj 452 434 f 250;
#N canvas 1429 343 450 300 snare_vol_env 0;
#X obj 159 132 vline~;
#X obj 159 156 *~;
#X msg 156 104 1 0.5 \, 0 \$1 0.5;
#X obj 88 37 inlet;
#X obj 159 180 outlet~;
#X connect 0 0 1 0;
#X connect 0 0 1 1;
#X connect 1 0 4 0;
#X connect 2 0 0 0;
#X connect 3 0 2 0;
#X restore 451 503 pd snare_vol_env;
#X obj 313 497 hip~ 100;
#X obj 349 639 vcf~ 3;
#X obj 503 623 vcf~ 5;
#N canvas 1429 343 450 300 cutoff_snare_env 0;
#X obj 159 132 vline~;
#X obj 159 156 *~;
#X msg 156 104 1 0.5 \, 0 \$1 0.5;
#X obj 88 37 inlet;
#X obj 159 180 outlet~;
#X connect 0 0 1 0;
#X connect 0 0 1 1;
#X connect 1 0 4 0;
#X connect 2 0 0 0;
#X connect 3 0 2 0;
#X restore 650 488 pd cutoff_snare_env;
#X obj 676 578 *~ 8000;
#X obj 676 602 +~ 100;
#X obj 771 590 *~ 5000;
#X obj 770 616 +~ 200;
#X obj 110 450 osc~;
#X obj 117 517 *~;
#X obj 234 424 *~;
#X obj 81 349 sig~ 150;
#X obj 81 373 +~;
#X obj 166 340 osc~ 50;
#X obj 166 364 *~ 30;
#X floatatom 285 303 5 0 0 1 decay - - 0;
#X obj 600 468 * 2;
#X floatatom 372 303 5 0 0 1 noise - - 0;
#X obj 833 505 * 0.6;
#X obj 422 385 inlet;
#X obj 285 107 vsl 19 162 10 3000 0 0 empty snare_decay empty 0 -9 0 12 #fcfcfc #000000 #000000 0 1;
#X obj 372 107 vsl 19 162 500 10000 1 0 empty snare_noise empty 0 -9 0 12 #fcfcfc #000000 #000000 0 1;
#X msg 1468 313 \; snare_decay 300 \; snare_noise 6000 \;;
#X msg 1160 453 \; snare_decay 800 \; snare_noise 3000 \;;
#X msg 995 265 \; snare_decay 50 \; snare_noise 6000 \;;
#X msg 1316 307 \; snare_decay 150 \; snare_noise 6000 \;;
#X obj 106 105 vradio 19 1 0 5 snare_select empty empty 0 -10 0 12 #fcfcfc #000000 #000000 0;
#X obj 1171 166 r snare_select;
#X floatatom 1171 190 5 0 0 0 - - - 0;
#X msg 1164 290 \; snare_decay 50 \; snare_noise 1000 \;;
#X obj 1187 216 sel 0 1 2 3 4;
#X text 130 106 high;
#X text 130 125 wood;
#X text 129 142 open;
#X text 129 162 opener;
#X text 130 181 openest;
#X text 112 252 SNARE!;
#X floatatom 194 303 5 0 0 1 volume - - 0;
#X obj 194 107 vsl 19 162 0 0.99 0 0 empty empty empty 0 -9 0 12 #fcfcfc #000000 #000000 0 1;
#X obj 350 710 *~;
#X obj 350 734 outlet~;
#X connect 0 0 4 0;
#X connect 1 0 5 0;
#X connect 1 0 6 0;
#X connect 2 0 3 0;
#X connect 2 0 20 0;
#X connect 3 0 1 1;
#X connect 3 0 14 0;
#X connect 3 0 14 1;
#X connect 4 0 1 0;
#X connect 5 0 43 0;
#X connect 6 0 43 0;
#X connect 7 0 8 0;
#X connect 7 0 10 0;
#X connect 8 0 9 0;
#X connect 9 0 5 1;
#X connect 10 0 11 0;
#X connect 11 0 6 1;
#X connect 12 0 13 0;
#X connect 13 0 5 0;
#X connect 13 0 6 0;
#X connect 14 0 13 1;
#X connect 15 0 16 0;
#X connect 16 0 12 0;
#X connect 17 0 18 0;
#X connect 18 0 16 1;
#X connect 19 0 2 1;
#X connect 20 0 7 0;
#X connect 21 0 8 1;
#X connect 21 0 22 0;
#X connect 22 0 10 1;
#X connect 23 0 2 0;
#X connect 24 0 19 0;
#X connect 25 0 21 0;
#X connect 31 0 32 0;
#X connect 32 0 34 0;
#X connect 34 0 28 0;
#X connect 34 1 33 0;
#X connect 34 2 29 0;
#X connect 34 3 26 0;
#X connect 41 0 43 1;
#X connect 42 0 41 0;
#X connect 43 0 44 0;
#X coords 0 -1 1 1 350 280 2 100 100;
#X restore 715 329 pd pedro_snare;
#N canvas 173 156 586 631 pedro_hats 0;
#N canvas 0 23 645 536 cymbal 0;
#X obj 161 56 noise~;
#X floatatom 413 87 5 0 0 0 - - - 0;
#N canvas 0 23 858 387 six_pulse_oscs 0;
#X obj 37 37 inlet;
#X obj 26 156 phasor~;
#X obj 26 177 expr~ $v1 > 0.55;
#X obj 26 232 *~ 0.9;
#X obj 130 121 * 1.342;
#X obj 131 156 phasor~;
#X obj 131 177 expr~ $v1 > 0.55;
#X obj 235 156 phasor~;
#X obj 235 177 expr~ $v1 > 0.55;
#X obj 340 156 phasor~;
#X obj 340 177 expr~ $v1 > 0.55;
#X obj 444 156 phasor~;
#X obj 444 177 expr~ $v1 > 0.55;
#X obj 549 156 phasor~;
#X obj 549 177 expr~ $v1 > 0.55;
#X obj 234 123 * 1.2312;
#X obj 341 121 * 1.6532;
#X obj 444 122 * 1.9523;
#X obj 548 120 * 2.1523;
#X obj 26 253 outlet~;
#X connect 0 0 4 0;
#X connect 0 0 18 0;
#X connect 0 0 17 0;
#X connect 0 0 16 0;
#X connect 0 0 15 0;
#X connect 0 0 1 0;
#X connect 1 0 2 0;
#X connect 2 0 3 0;
#X connect 3 0 19 0;
#X connect 4 0 5 0;
#X connect 5 0 6 0;
#X connect 6 0 3 0;
#X connect 7 0 8 0;
#X connect 8 0 3 0;
#X connect 9 0 10 0;
#X connect 10 0 3 0;
#X connect 11 0 12 0;
#X connect 12 0 3 0;
#X connect 13 0 14 0;
#X connect 14 0 3 0;
#X connect 15 0 7 0;
#X connect 16 0 9 0;
#X connect 17 0 11 0;
#X connect 18 0 13 0;
#X restore 413 107 pd six_pulse_oscs;
#X obj 161 258 *~;
#X floatatom 371 69 5 0 0 0 - - - 0;
#X obj 328 66 bng 15 250 50 0 empty empty empty 17 7 0 10 #fcfcfc #000000 #000000;
#X obj 161 117 *~;
#N canvas 0 23 305 203 vol_env 0;
#X obj 74 76 f 250;
#X obj 72 43 inlet;
#X obj 128 38 inlet;
#X obj 76 126 vline~;
#X obj 76 147 outlet~;
#X msg 76 105 1 2 \, 0.4 \$1 2 \, 0 \$1 \$1;
#X connect 0 0 5 0;
#X connect 1 0 0 0;
#X connect 2 0 0 1;
#X connect 3 0 4 0;
#X connect 5 0 3 0;
#X restore 179 234 pd vol_env;
#N canvas 0 23 305 203 noise_env 0;
#X obj 72 43 inlet;
#X obj 128 38 inlet;
#X obj 68 141 line~;
#X msg 69 117 1 \, 0.6 \$1;
#X obj 87 72 f 250;
#X obj 87 93 * 0.5;
#X obj 71 171 outlet~;
#X connect 0 0 4 0;
#X connect 1 0 4 1;
#X connect 2 0 6 0;
#X connect 3 0 2 0;
#X connect 4 0 5 0;
#X connect 5 0 3 0;
#X restore 198 102 pd noise_env;
#X obj 193 273 delread~ \$0-del 5;
#X obj 31 296 delwrite~ \$0-del 10;
#N canvas 0 23 450 300 filters 0;
#X obj 36 37 inlet~;
#X obj 43 248 biquad~ 1.86507 -0.892661 0.894294 -1.78859 0.894294;
#X obj 38 124 biquad~ 0.88843 -0.568945 0.614344 -1.22869 0.614344;
#X obj 42 201 biquad~ 0.88843 -0.568945 0.614344 -1.22869 0.614344;
#X obj 42 81 biquad~ 0.638282 -0.176456 0.134544 0.269087 0.134544;
#X text 214 106 6800Hz resonant hipass \, Q=1.5;
#X text 210 53 7000Hz resonant lowpass \, Q=0.6;
#X text 220 182 6800Hz resonant hipass \, Q=1.5;
#X text 228 230 1200Hz resonant hipass \, Q=1.5;
#X obj 43 269 outlet~;
#X connect 0 0 4 0;
#X connect 1 0 9 0;
#X connect 2 0 3 0;
#X connect 3 0 1 0;
#X connect 4 0 2 0;
#X restore 161 154 pd filters;
#X obj 330 38 inlet;
#X obj 372 42 inlet;
#X obj 416 43 inlet;
#X text 461 47 basefreq;
#X text 368 24 dur;
#X text 290 21 trig;
#X obj 161 349 outlet~;
#X obj 161 315 *~ 0.5;
#X obj 413 128 *~ 1;
#X obj 461 65 loadbang;
#X msg 461 86 220;
#X connect 0 0 6 0;
#X connect 1 0 2 0;
#X connect 2 0 20 0;
#X connect 3 0 10 0;
#X connect 3 0 19 0;
#X connect 4 0 7 1;
#X connect 4 0 8 1;
#X connect 5 0 7 0;
#X connect 5 0 8 0;
#X connect 6 0 11 0;
#X connect 7 0 3 1;
#X connect 8 0 6 1;
#X connect 9 0 19 0;
#X connect 11 0 3 0;
#X connect 12 0 5 0;
#X connect 13 0 4 0;
#X connect 14 0 1 0;
#X connect 19 0 18 0;
#X connect 20 0 11 0;
#X connect 21 0 22 0;
#X connect 22 0 1 0;
#X restore 49 351 pd cymbal;
#X floatatom 277 299 5 0 0 1 decay - - 0;
#X obj 277 150 vsl 15 128 50 2000 1 0 empty hh_decay empty 0 -9 0 10 #fcfcfc #000000 #000000 0 1;
#X floatatom 373 299 5 0 0 1 pitch - - 0;
#X obj 373 150 vsl 15 128 100 1000 1 0 empty hh_pitch empty 0 -9 0 10 #fcfcfc #000000 #000000 0 1;
#X msg 160 508 \; hh_decay 250 \; hh_pitch 250 \;;
#X msg 50 508 \; hh_decay 70 \; hh_pitch 500 \;;
#X msg 275 507 \; hh_decay 170 \; hh_pitch 200 \;;
#N canvas 0 23 374 160 filter_calculation_tool 0;
#N canvas 868 536 706 476 calculate_biquad_coefficients 0;
#X obj 131 15 inlet;
#X obj 353 10 inlet;
#X obj 486 98 expr pow(10 \, abs(1/20));
#X text 631 98 V;
#X obj 141 377 print;
#X obj 380 67 f 1;
#N canvas 1009 506 605 495 lowpass 0;
#X obj 37 37 inlet;
#X obj 57 98 expr tan(3.14159265 * $f1);
#X text 223 94 K;
#X obj 297 32 t f f;
#X text 28 154 norm;
#X obj 46 312 pack f f f f f;
#X obj 62 124 t f f;
#X text 103 226 lp_a0;
#X obj 69 267 * 2;
#X obj 49 225 t f f f;
#X obj 63 174 t f f;
#X obj 196 202 expr 2 * $f1 * (($f2*$f2) - 1);
#X obj 299 9 inlet;
#X obj 46 333 outlet;
#X obj 214 244 expr (1 - ($f2 / $f3) + ($f2*$f2)) * $f1;
#X obj 63 153 expr 1 / (1 + ($f1/$f2) + ($f1*$f1));
#X obj 49 204 expr $f2 * $f2 * $f1;
#X connect 0 0 1 0;
#X connect 1 0 6 0;
#X connect 3 0 14 2;
#X connect 3 0 15 1;
#X connect 5 0 13 0;
#X connect 6 0 15 0;
#X connect 6 1 11 1;
#X connect 6 1 14 1;
#X connect 6 1 16 1;
#X connect 8 0 5 1;
#X connect 9 0 5 0;
#X connect 9 1 8 0;
#X connect 9 2 5 2;
#X connect 10 0 16 0;
#X connect 10 1 11 0;
#X connect 10 1 14 0;
#X connect 11 0 5 3;
#X connect 12 0 3 0;
#X connect 14 0 5 4;
#X connect 15 0 10 0;
#X connect 16 0 9 0;
#X restore 172 173 pd lowpass;
#X obj 443 7 loadbang;
#X obj 185 60 loadbang;
#X obj 174 311 outlet;
#X obj 353 31 t b f;
#X obj 131 36 / 44100;
#X text 72 162 a0 a1 a2 b1 b2;
#N canvas 0 23 450 300 convert_to_pd_biquad 0;
#X obj 24 18 inlet;
#X obj 52 69 unpack f f f f f;
#X obj 121 112 * -1;
#X obj 155 113 * -1;
#X obj 61 175 pack f f f f f;
#X obj 49 141 f 0;
#X obj 24 39 t b l;
#X obj 61 196 outlet;
#X connect 0 0 6 0;
#X connect 1 0 4 2;
#X connect 1 1 4 3;
#X connect 1 2 4 4;
#X connect 1 3 2 0;
#X connect 1 4 3 0;
#X connect 2 0 5 1;
#X connect 3 0 4 1;
#X connect 4 0 7 0;
#X connect 5 0 4 0;
#X connect 6 0 5 0;
#X connect 6 1 1 0;
#X restore 172 194 pd convert_to_pd_biquad;
#X obj 170 103 f 0.01;
#X text 68 216 -b1 -b2 a0 a1 a2;
#N canvas 0 23 450 300 convert_to_pd_biquad 0;
#X obj 24 18 inlet;
#X obj 52 69 unpack f f f f f;
#X obj 121 112 * -1;
#X obj 155 113 * -1;
#X obj 61 175 pack f f f f f;
#X obj 49 141 f 0;
#X obj 24 39 t b l;
#X obj 61 196 outlet;
#X connect 0 0 6 0;
#X connect 1 0 4 2;
#X connect 1 1 4 3;
#X connect 1 2 4 4;
#X connect 1 3 2 0;
#X connect 1 4 3 0;
#X connect 2 0 5 1;
#X connect 3 0 4 1;
#X connect 4 0 7 0;
#X connect 5 0 4 0;
#X connect 6 0 5 0;
#X connect 6 1 1 0;
#X restore 348 196 pd convert_to_pd_biquad;
#N canvas 1009 506 605 495 highpass 0;
#X obj 37 37 inlet;
#X obj 57 98 expr tan(3.14159265 * $f1);
#X text 223 94 K;
#X obj 297 32 t f f;
#X text 28 154 norm;
#X obj 46 312 pack f f f f f;
#X obj 62 124 t f f;
#X obj 49 225 t f f f, f 12;
#X obj 63 174 t f f;
#X obj 196 202 expr 2 * $f1 * (($f2*$f2) - 1);
#X obj 299 9 inlet;
#X obj 46 333 outlet;
#X obj 214 244 expr (1 - ($f2 / $f3) + ($f2*$f2)) * $f1;
#X obj 63 153 expr 1 / (1 + ($f1/$f2) + ($f1*$f1));
#X obj 69 267 * -2;
#X connect 0 0 1 0;
#X connect 1 0 6 0;
#X connect 3 0 12 2;
#X connect 3 0 13 1;
#X connect 5 0 11 0;
#X connect 6 0 13 0;
#X connect 6 1 9 1;
#X connect 6 1 12 1;
#X connect 7 0 5 0;
#X connect 7 1 14 0;
#X connect 7 2 5 2;
#X connect 8 0 7 0;
#X connect 8 1 9 0;
#X connect 8 1 12 0;
#X connect 9 0 5 3;
#X connect 10 0 3 0;
#X connect 12 0 5 4;
#X connect 13 0 8 0;
#X connect 14 0 5 1;
#X restore 348 175 pd highpass;
#X obj 170 15 samplerate~;
#X obj 347 309 outlet;
#X obj 527 308 outlet;
#N canvas 1003 702 450 300 convert_to_pd_biquad 0;
#X obj 24 18 inlet;
#X obj 52 69 unpack f f f f f;
#X obj 121 112 * -1;
#X obj 155 113 * -1;
#X obj 61 175 pack f f f f f;
#X obj 49 141 f 0;
#X obj 24 39 t b l;
#X obj 61 196 outlet;
#X connect 0 0 6 0;
#X connect 1 0 4 2;
#X connect 1 1 4 3;
#X connect 1 2 4 4;
#X connect 1 3 2 0;
#X connect 1 4 3 0;
#X connect 2 0 5 1;
#X connect 3 0 4 1;
#X connect 4 0 7 0;
#X connect 5 0 4 0;
#X connect 6 0 5 0;
#X connect 6 1 1 0;
#X restore 522 200 pd convert_to_pd_biquad;
#N canvas 1009 506 605 495 bandpass 0;
#X obj 37 37 inlet;
#X obj 57 98 expr tan(3.14159265 * $f1);
#X text 223 94 K;
#X obj 297 32 t f f;
#X text 28 154 norm;
#X obj 62 124 t f f;
#X obj 49 225 t f f f;
#X obj 63 174 t f f;
#X obj 196 202 expr 2 * $f1 * (($f2*$f2) - 1);
#X obj 299 9 inlet;
#X obj 46 333 outlet;
#X obj 214 244 expr (1 - ($f2 / $f3) + ($f2*$f2)) * $f1;
#X obj 63 153 expr 1 / (1 + ($f1/$f2) + ($f1*$f1));
#X obj 49 204 expr $f2 / ($f3 * $f1);
#X obj 46 312 pack f 0 f f f;
#X obj 88 269 * -1;
#X connect 0 0 1 0;
#X connect 1 0 5 0;
#X connect 3 0 11 2;
#X connect 3 0 12 1;
#X connect 3 0 13 2;
#X connect 5 0 12 0;
#X connect 5 1 8 1;
#X connect 5 1 11 1;
#X connect 5 1 13 1;
#X connect 6 0 14 0;
#X connect 6 2 15 0;
#X connect 7 0 13 0;
#X connect 7 1 8 0;
#X connect 7 1 11 0;
#X connect 8 0 14 3;
#X connect 9 0 3 0;
#X connect 11 0 14 4;
#X connect 12 0 7 0;
#X connect 13 0 6 0;
#X connect 14 0 10 0;
#X connect 15 0 14 2;
#X restore 523 177 pd bandpass;
#X connect 0 0 11 0;
#X connect 1 0 10 0;
#X connect 5 0 6 1;
#X connect 5 0 17 1;
#X connect 5 0 22 1;
#X connect 6 0 13 0;
#X connect 7 0 5 0;
#X connect 8 0 14 0;
#X connect 10 0 14 0;
#X connect 10 1 5 0;
#X connect 11 0 14 0;
#X connect 13 0 9 0;
#X connect 14 0 6 0;
#X connect 14 0 17 0;
#X connect 14 0 22 0;
#X connect 16 0 19 0;
#X connect 17 0 16 0;
#X connect 18 0 11 1;
#X connect 21 0 20 0;
#X connect 22 0 21 0;
#X restore 21 47 pd calculate_biquad_coefficients;
#X floatatom 21 23 5 0 0 1 cutoff - - 0;
#X floatatom 210 25 5 0 0 1 resonance - - 0;
#X obj 21 74 print lowpass;
#X obj 115 74 print highpass;
#X obj 209 77 print bandpass;
#X connect 0 0 3 0;
#X connect 0 1 4 0;
#X connect 0 2 5 0;
#X connect 1 0 0 0;
#X connect 2 0 0 1;
#X restore 353 15 pd filter_calculation_tool;
#X obj 34 98 inlet;
#X obj 48 436 outlet~;
#X obj 107 108 vradio 19 1 0 3 hat_preset empty empty 0 -10 0 12 #fcfcfc #000000 #000000 0;
#X obj 277 341 r hat_preset;
#X floatatom 277 365 5 0 0 0 - - - 0;
#X obj 277 388 sel 0 1 2 3;
#X text 131 107 closed;
#X text 131 126 bit open;
#X text 131 147 open;
#X text 110 199 HI HAT!;
#X floatatom 175 299 5 0 0 1 volume - - 0;
#X obj 175 150 vsl 15 128 0.0099 0.99 1 0 empty empty empty 0 -9 0 10 #fcfcfc #000000 #000000 0 1;
#X obj 49 398 *~;
#X connect 0 0 21 0;
#X connect 1 0 0 1;
#X connect 2 0 1 0;
#X connect 3 0 0 2;
#X connect 4 0 3 0;
#X connect 9 0 0 0;
#X connect 12 0 13 0;
#X connect 13 0 14 0;
#X connect 14 0 6 0;
#X connect 14 1 7 0;
#X connect 14 2 5 0;
#X connect 19 0 21 1;
#X connect 20 0 19 0;
#X connect 21 0 10 0;
#X coords 0 -1 1 1 350 280 2 100 100;
#X restore 715 42 pd pedro_hats;
#N canvas 1640 187 1920 997 pedro_clap 0;
#N canvas 42 87 470 441 tr808-clap 0;
#X obj 79 265 inlet;
#X obj 70 121 noise~;
#X obj 210 257 inlet;
#X obj 79 385 outlet~;
#X obj 98 222 lop~;
#X floatatom 122 150 5 0 0 0 - - - 0;
#X obj 98 187 hip~;
#X obj 85 353 *~;
#X floatatom 184 128 5 0 0 0 - - - 0;
#X obj 184 148 t b f;
#X obj 161 184 + 500;
#N canvas 0 23 811 499 multi_env 0;
#X obj 127 101 inlet;
#X floatatom 427 320 5 0 0 1 Decay - - 0;
#N canvas 0 23 450 300 env2 0;
#X obj 37 37 inlet;
#X obj 38 155 line~;
#X obj 29 204 *~;
#X msg 37 105 0;
#X obj 37 126 pack 0 200;
#X obj 37 84 del 2;
#X obj 37 63 t b b, f 14;
#X obj 29 225 outlet~;
#X obj 187 61 inlet;
#X msg 121 127 1 0;
#X connect 0 0 6 0;
#X connect 1 0 2 0;
#X connect 1 0 2 1;
#X connect 2 0 7 0;
#X connect 3 0 4 0;
#X connect 4 0 1 0;
#X connect 5 0 3 0;
#X connect 6 0 5 0;
#X connect 6 1 9 0;
#X connect 8 0 4 1;
#X connect 9 0 1 0;
#X restore 123 355 pd env2;
#N canvas 0 23 450 300 env2 0;
#X obj 37 37 inlet;
#X obj 38 155 line~;
#X obj 29 204 *~;
#X msg 37 105 0;
#X obj 37 126 pack 0 200;
#X obj 37 84 del 2;
#X obj 37 63 t b b, f 14;
#X obj 29 225 outlet~;
#X obj 187 61 inlet;
#X msg 120 128 1 0;
#X connect 0 0 6 0;
#X connect 1 0 2 0;
#X connect 1 0 2 1;
#X connect 2 0 7 0;
#X connect 3 0 4 0;
#X connect 4 0 1 0;
#X connect 5 0 3 0;
#X connect 6 0 5 0;
#X connect 6 1 9 0;
#X connect 8 0 4 1;
#X connect 9 0 1 0;
#X restore 179 354 pd env2;
#N canvas 0 23 450 300 env2 0;
#X obj 37 37 inlet;
#X obj 38 155 line~;
#X obj 29 204 *~;
#X msg 37 105 0;
#X obj 37 126 pack 0 200;
#X obj 37 84 del 2;
#X obj 37 63 t b b, f 14;
#X obj 29 225 outlet~;
#X obj 187 61 inlet;
#X msg 120 128 1 0;
#X connect 0 0 6 0;
#X connect 1 0 2 0;
#X connect 1 0 2 1;
#X connect 2 0 7 0;
#X connect 3 0 4 0;
#X connect 4 0 1 0;
#X connect 5 0 3 0;
#X connect 6 0 5 0;
#X connect 6 1 9 0;
#X connect 8 0 4 1;
#X connect 9 0 1 0;
#X restore 235 355 pd env2;
#N canvas 0 23 450 300 env2 0;
#X obj 37 37 inlet;
#X obj 38 155 line~;
#X obj 29 204 *~;
#X msg 37 105 0;
#X obj 37 126 pack 0 200;
#X obj 37 84 del 2;
#X obj 37 63 t b b, f 14;
#X obj 29 225 outlet~;
#X obj 187 61 inlet;
#X msg 120 128 1 0;
#X connect 0 0 6 0;
#X connect 1 0 2 0;
#X connect 1 0 2 1;
#X connect 2 0 7 0;
#X connect 3 0 4 0;
#X connect 4 0 1 0;
#X connect 5 0 3 0;
#X connect 6 0 5 0;
#X connect 6 1 9 0;
#X connect 8 0 4 1;
#X connect 9 0 1 0;
#X restore 309 353 pd env2;
#X obj 182 220 del 40;
#X obj 238 277 del 40;
#X obj 308 320 del 40;
#X obj 120 417 *~ 0.25;
#X obj 125 377 *~;
#X obj 177 375 *~;
#X obj 430 349 * 5;
#X obj 524 323 t b f;
#X obj 235 378 *~;
#X obj 308 381 *~;
#X obj 372 78 * 5;
#X obj 120 438 outlet~;
#X obj 372 52 inlet;
#X obj 523 287 inlet;
#X text 378 30 delay;
#X text 562 304 decay;
#X text 428 370 final delay is stretched out by a factor of [decay];
#X connect 0 0 6 0;
#X connect 0 0 2 0;
#X connect 1 0 2 1;
#X connect 1 0 3 1;
#X connect 1 0 4 1;
#X connect 1 0 12 0;
#X connect 2 0 10 0;
#X connect 2 0 10 1;
#X connect 3 0 11 0;
#X connect 3 0 11 1;
#X connect 4 0 14 0;
#X connect 4 0 14 1;
#X connect 5 0 15 0;
#X connect 5 0 15 1;
#X connect 6 0 7 0;
#X connect 6 0 3 0;
#X connect 7 0 8 0;
#X connect 7 0 4 0;
#X connect 8 0 5 0;
#X connect 9 0 17 0;
#X connect 10 0 9 0;
#X connect 11 0 9 0;
#X connect 12 0 5 1;
#X connect 13 0 12 0;
#X connect 13 1 12 1;
#X connect 14 0 9 0;
#X connect 15 0 9 0;
#X connect 16 0 1 0;
#X connect 18 0 16 0;
#X connect 18 0 6 1;
#X connect 18 0 7 1;
#X connect 18 0 8 1;
#X connect 19 0 13 0;
#X restore 78 293 pd multi_env;
#X obj 259 259 inlet;
#X obj 120 80 inlet;
#X obj 169 104 inlet;
#X text 299 262 decay;
#X text 206 237 delay;
#X text 180 89 width;
#X text 119 57 cutoff;
#X text 43 262 trig;
#X connect 0 0 11 0;
#X connect 1 0 6 0;
#X connect 2 0 11 1;
#X connect 4 0 7 1;
#X connect 5 0 6 1;
#X connect 5 0 10 0;
#X connect 6 0 4 0;
#X connect 7 0 3 0;
#X connect 8 0 9 0;
#X connect 9 0 10 0;
#X connect 9 1 10 1;
#X connect 10 0 4 1;
#X connect 11 0 7 0;
#X connect 12 0 11 2;
#X connect 13 0 5 0;
#X connect 14 0 8 0;
#X restore 436 509 pd tr808-clap;
#X f 62;
#X floatatom 383 317 5 0 0 1 cutoff - - 0;
#X floatatom 491 317 5 0 0 1 width - - 0;
#X floatatom 599 317 5 0 0 1 delay - - 0;
#X floatatom 707 320 5 0 0 1 decay - - 0;
#X msg 765 591 \; tr808cp_cutoff 750 \; tr808cp_width 1000 \; tr808cp_delay 11 \; tr808cp_decay 3.5 \;;
#X msg 587 585 \; tr808cp_cutoff 800 \; tr808cp_width 1500 \; tr808cp_delay 8 \; tr808cp_decay 3.5 \;;
#X msg 1134 596 \; tr808cp_cutoff 1600 \; tr808cp_width 600 \; tr808cp_delay 18 \; tr808cp_decay 5.5 \;;
#X msg 946 597 \; tr808cp_cutoff 1250 \; tr808cp_width 500 \; tr808cp_delay 14 \; tr808cp_decay 4.5 \;;
#X obj 266 423 inlet;
#X obj 371 684 *~, f 4;
#X obj 383 129 vsl 19 162 50 5000 1 0 empty tr808cp_cutoff empty 0 -9 0 12 #fcfcfc #000000 #000000 0 1;
#X obj 491 129 vsl 19 162 50 5000 1 0 empty tr808cp_width empty 0 -9 0 12 #fcfcfc #000000 #000000 0 1;
#X obj 599 129 vsl 19 162 2 40 1 0 empty tr808cp_delay empty 0 -9 0 12 #fcfcfc #000000 #000000 0 1;
#X obj 707 129 vsl 19 162 1 50 0 0 empty tr808cp_decay empty 0 -9 0 12 #fcfcfc #000000 #000000 0 1;
#X obj 287 129 vsl 19 162 0 0.99 0 0 empty empty empty 0 -9 0 12 #fcfcfc #000000 #000000 0 1;
#X floatatom 287 317 5 0 0 1 volume - - 0;
#X obj 167 127 vradio 19 1 0 4 clap_preset empty empty 0 -10 0 12 #fcfcfc #000000 #000000 0;
#X obj 1025 469 r clap_preset;
#X floatatom 1025 493 5 0 0 0 - - - 0;
#X obj 1025 516 sel 0 1 2 3;
#X obj 371 708 outlet~;
#X text 190 127 mega closed;
#X text 189 146 closed;
#X text 189 165 open;
#X text 190 183 mega open;
#X text 168 267 CLAP!;
#X connect 0 0 10 0;
#X connect 1 0 0 1;
#X connect 2 0 0 2;
#X connect 3 0 0 3;
#X connect 4 0 0 4;
#X connect 9 0 0 0;
#X connect 10 0 21 0;
#X connect 11 0 1 0;
#X connect 12 0 2 0;
#X connect 13 0 3 0;
#X connect 14 0 4 0;
#X connect 15 0 16 0;
#X connect 16 0 10 1;
#X connect 18 0 19 0;
#X connect 19 0 20 0;
#X connect 20 0 6 0;
#X connect 20 1 5 0;
#X connect 20 2 8 0;
#X connect 20 3 7 0;
#X coords 0 -1 1 1 700 280 2 100 100;
#X restore 9 329 pd pedro_clap;
#X obj 264 725 inlet;
#X obj 327 724 inlet;
#X obj 396 726 inlet;
#X obj 459 725 inlet;
#X text 22 13 kick hi-hat snare clap;
#X obj 127 795 outlet~;
#X connect 0 0 9 0;
#X connect 1 0 9 0;
#X connect 2 0 9 0;
#X connect 3 0 9 0;
#X connect 4 0 0 0;
#X connect 5 0 2 0;
#X connect 6 0 1 0;
#X connect 7 0 3 0;
#X coords 0 -1 1 1 1100 650 2 0 0;
